<?xml version="1.0" encoding="UTF-8"?>
<svg id="Layer_2" data-name="Layer 2" xmlns="http://www.w3.org/2000/svg" viewBox="0 0 503.26 483.61">
  <defs>
    <style>
      .cls-1 {
        fill: #999;
      }
    </style>
  </defs>
  <g id="Layer_1-2" data-name="Layer 1">
    <path class="cls-1" d="m251.37,483.49c-82,0-164-.04-246.01.11-4.39,0-5.36-1.03-5.35-5.38C.14,336.07.14,193.91,0,51.75c0-4.47,1.14-5.4,5.45-5.37,28.61.21,57.22-.02,85.83.23,4.77.04,5.68-1.44,5.58-5.8-.29-12.3,0-24.61-.17-36.91-.04-3.03.67-4.01,3.82-3.89,6.81.26,13.64.24,20.45,0,3.14-.11,3.89.91,3.85,3.94-.17,12.8.02,25.61-.14,38.41-.04,3.08.56,4.21,3.99,4.2,82-.11,164-.11,246.01,0,3.55,0,3.96-1.29,3.93-4.27-.14-12.63.07-25.27-.14-37.91-.06-3.51.93-4.53,4.42-4.39,6.64.27,13.31.28,19.95,0,3.26-.14,3.8,1.02,3.76,3.95-.15,12.63.08,25.27-.16,37.91-.07,3.68.8,4.74,4.62,4.72,29.11-.17,58.22-.01,87.32-.19,3.93-.02,4.88,1.01,4.88,4.9-.11,142.49-.11,284.98,0,427.47,0,3.96-1.07,4.81-4.89,4.81-82.33-.11-164.67-.09-247-.09Zm.23-29.93c72.18,0,144.36-.04,216.54.1,4.02,0,5.2-.74,5.19-5.03-.15-88.11-.15-176.22,0-264.33,0-4.33-.94-5.4-5.36-5.4-144.19.14-288.38.13-432.58.01-4.24,0-5.46.78-5.45,5.3.16,88.11.15,176.22.02,264.33,0,4.14.95,5.12,5.11,5.11,72.18-.14,144.36-.1,216.54-.1Zm.03-304.48c61.04,0,122.09,0,183.13,0,11.64,0,23.29-.09,34.93.06,2.79.04,3.61-.68,3.6-3.54-.12-21.95-.1-43.89-.02-65.84.01-2.55-.62-3.42-3.31-3.4-19.96.11-39.92.11-59.88,0-2.89-.02-3.68.92-3.61,3.7.17,7.15-.04,14.3.11,21.45.05,2.58-.72,3.46-3.37,3.4-6.98-.17-13.98-.23-20.95.02-3.29.12-3.84-1.18-3.77-4.06.18-6.65-.2-13.31.16-19.95.21-3.89-1.12-4.62-4.74-4.59-20.29.18-40.58.09-60.88.09-61.21,0-122.42.03-183.63-.08-3.61,0-4.96.67-4.75,4.58.36,6.63-.02,13.3.15,19.95.08,2.86-.45,4.19-3.75,4.07-6.98-.26-13.97-.19-20.95-.02-2.64.06-3.44-.79-3.38-3.39.15-6.81-.16-13.64.14-20.45.16-3.68-.79-4.8-4.63-4.75-19.29.21-38.59.19-57.88,0-3.54-.03-4.38.96-4.36,4.41.16,21.11.21,42.23-.03,63.35-.05,4.17,1,5.1,5.12,5.09,72.19-.14,144.37-.1,216.56-.1Z"/>
  </g>
</svg>