<?xml version="1.0" encoding="UTF-8"?>
<svg id="Layer_2" data-name="Layer 2" xmlns="http://www.w3.org/2000/svg" viewBox="0 0 160.09 132.3">
  <defs>
    <style>
      .cls-1 {
        fill: #ff5e3d;
      }
    </style>
  </defs>
  <g id="Layer_1-2" data-name="Layer 1">
    <g>
      <path d="m160.09,94.3c-2.83.42-5.45.93-8.09,1.17-24.77,2.22-48.7-11.32-59.65-33.72-5.98-12.22,2.52-27.99,15.98-29.9,7.53-1.07,13.89,1.02,19.22,6.37.61.61,1.15,1.32,1.58,2.06,10.11,17.53,20.19,35.07,30.28,52.61.19.33.34.69.68,1.4Z"/>
      <path d="m73.31,47.31c20.9-6.24,26.49-32.75,9.07-46.89,10.77-2.43,22.69,5.87,24.63,17.15.16.93.35,1.88.38,2.82.06,1.98.67,4.3-.16,5.82-.69,1.26-3.1,1.62-4.79,2.28-14.8,5.8-21.18,22.95-13.69,36.95,7.78,14.53,19.36,24.81,34.74,30.74,1.38.53,2.05,1.16,1.93,2.71-.14,1.8-.03,3.61-.03,5.69-11.9-.18-23.85,1.63-34.49-5.25-11.39-7.36-17.49-17.75-17.58-31.44-.05-6.88,0-13.76,0-20.59Z"/>
      <path class="cls-1" d="m15.99,3.07C20.53,2.02,24.47.41,28.45.31c13.2-.33,26.41-.13,39.83-.13v18.77c-.58.05-1.18.14-1.79.14-11.87,0-23.74-.02-35.6.04-1.46,0-2.21-.43-2.88-1.76-2.37-4.71-5.66-8.74-9.68-12.17-.58-.5-1.13-1.03-2.35-2.13Z"/>
      <path d="m130.34,98.76c5.41.72,10.63,1.41,16.09,2.14-.36,6,.83,12.11-1.39,18-2.33,6.18-6.58,10.49-12.76,12.86-.57.22-1.18.33-1.94.54v-33.53Z"/>
      <path d="m73.43,41.78V1.59c7.54,1.46,14.23,10.57,14.54,19.66.3,8.9-6.19,18.17-14.54,20.54Zm5.22-26.43c1.98-.05,3.38-1.48,3.17-3.11-.21-1.7-1.2-2.71-3.02-2.7-1.79.02-2.93,1.25-2.8,3.08.12,1.81,1.2,2.64,2.65,2.73Z"/>
      <path class="cls-1" d="m68.27,24.06v3.97c-.73.03-1.48.09-2.23.09-17.23,0-34.46,0-51.69,0-3.38,0-5.13-1.12-6.29-4.06h60.21Z"/>
      <path class="cls-1" d="m23.25,19.01H0c2.92-5.35,6.84-9.41,11.58-12.69,4.57,2.7,9.28,7.78,11.67,12.69Z"/>
    </g>
  </g>
</svg>