<?xml version="1.0" encoding="UTF-8"?>
<svg id="Layer_2" data-name="Layer 2" xmlns="http://www.w3.org/2000/svg" viewBox="0 0 228.71 163.4">
  <defs>
    <style>
      .cls-1 {
        fill: #999;
      }
    </style>
  </defs>
  <g id="Layer_1-2" data-name="Layer 1">
    <path class="cls-1" d="m70.74,163.39c-21.24,0-42.48,0-63.71,0-5.14,0-6.98-1.87-7.01-7.04-.05-8.71-.13-17.39,2.32-25.91,7.12-24.84,30.02-42.68,55.86-43.19,8.16-.16,16.34-.17,24.5-.01,30.07.56,54.62,22.48,58.32,52.29.76,6.14.49,12.42.5,18.63,0,3.18-2.31,5.18-5.66,5.22-4.28.06-8.56.02-12.84.02-17.43,0-34.85,0-52.28,0Z"/>
    <path class="cls-1" d="m151.89,163.39c3.22-28.54-3.41-53.19-26.86-72.42,4.64-1.14,8.67-2.69,12.79-3.03,14.11-1.18,28.3-1.86,42.33.37,23.72,3.78,44,24.34,47.54,48.1,1.06,7.1.84,14.4,1.01,21.62.07,3.07-2.26,5.16-5.36,5.34-.62.04-1.24.01-1.87.01-22.32,0-44.64,0-66.96,0h-2.63Z"/>
    <path class="cls-1" d="m108.9,38.29c-.08,21.1-17.14,38.01-38.25,37.91-21.09-.1-38.01-17.16-37.95-38.25C32.77,16.94,49.94-.08,70.99,0c21.06.08,37.98,17.17,37.9,38.29Z"/>
    <path class="cls-1" d="m157.8,76.2c-21.13-.11-37.99-17.12-37.9-38.25C119.98,16.77,137.11-.13,158.37,0c20.95.13,37.86,17.4,37.72,38.52-.14,20.9-17.31,37.79-38.29,37.68Z"/>
  </g>
</svg>