<?xml version="1.0" encoding="UTF-8"?>
<svg id="Layer_2" data-name="Layer 2" xmlns="http://www.w3.org/2000/svg" xmlns:xlink="http://www.w3.org/1999/xlink" viewBox="0 0 269.78 220.89">
  <defs>
    <style>
      .cls-1 {
        fill: none;
      }

      .cls-2 {
        clip-path: url(#clippath);
      }

      .cls-3 {
        fill: #030303;
      }

      .cls-4 {
        fill: #f49300;
      }

      .cls-5 {
        fill: #fcc70b;
      }

      .cls-6 {
        fill: #8dc83f;
      }

      .cls-7 {
        fill: #068130;
      }
    </style>
    <clipPath id="clippath">
      <polyline class="cls-1" points="0 51 58.67 0 192.77 7.11 269.78 92.89 263.11 220.89 184.89 220.89 166.67 184.44 165.33 177.48 132.52 160.44 75.24 99.56 20.44 82.03 4.44 51.52"/>
    </clipPath>
  </defs>
  <g id="Layer_1-2" data-name="Layer 1">
    <g class="cls-2">
      <g>
        <path class="cls-3" d="m170.34,173.68c-15.85-.25-31.7-.18-47.55-.28-.86,8.6-4.92,16.83-11.21,22.76s-14.75,9.49-23.38,9.85c-.86.04-1.77.03-2.52-.4-1.44-.82-1.69-2.76-1.65-4.41.21-10.78,5.79-21.33,14.58-27.57-26.99-.06-53.99-.12-80.98-.18-2.23,0-5.12-.54-5.46-2.74-.21-1.34.8-2.63,2.03-3.19s2.64-.58,3.99-.58c13.1-.02,26.19-.04,39.29-.06-8.12-6.7-13.37-16.77-14.21-27.26-.08-1.06-.11-2.19.44-3.09.95-1.57,3.12-1.79,4.95-1.69,16.14.88,30.76,14.12,33.22,30.1.09.61.21,1.28.69,1.66.41.32.98.34,1.51.34,20.23,0,40.45-.02,60.68-.03-.36-.24-.72-.48-1.07-.72-8.48-5.77-15.77-12.87-20.86-21.88-3.07-5.44-4.66-11.38-6.05-17.35-.61-2.61-.35-5.45-.35-8.18-.03-15.34,0-30.69-.03-46.03,0-.96.54-2.29-1.12-2.58-.25,0-.5,0-.75,0-24.12,0-48.25-.09-72.36.15-3.06.03-5.71-.75-7.83-2.25-2.81-1.98-5.53-4.54-6.44-8.16-.35-1.38-1-1.7-2.23-1.67-2.33.04-4.66-.05-6.99.03-3.19.1-4.8-2.56-3.16-5.75,2.99-5.85,6.19-11.54,10.88-16.19,5.31-5.26,11.35-9.31,18.31-12.38,7.84-3.46,15.84-4.59,24.18-4.62,18.21-.08,36.42-.1,54.64-.13,5.99,0,11.99-.14,17.96.19,3.13.18,6.22,1.06,9.29,2.03,13.11,4.16,20.77,13.08,23.76,26.3.82,3.62,1.05,7.28,1.02,10.98-.03,3.53,0,3.85,3.56,3.75,5.35-.15,9.95,2.24,14.31,4.49,4.85,2.5,8.92,6.43,11.59,11.49,2.9,5.48,6.14,10.77,9.2,16.15,2.25,3.96,4.48,7.95,6.71,11.93,6.07,10.84,12.34,21.57,18.55,32.33,2.65,4.6,5.31,9.18,7.99,13.76,1.44,2.46.11,5.61-2.96,6.11-4.38.71-8.6,2.41-13.16,2.11-2.25-.14-3.41.71-3.29,3.4.22,4.97.3,9.99-.15,14.94-1.06,11.68-6.67,20.77-16.45,27.3-4.01,2.68-8.47,4.23-13.12,5.19-3.84.79-5.03-.33-5.06-4.31-.09-10.3-.24-20.61-.18-30.91.01-2.41-.64-3.12-3.04-3.01-5.81.26-11.63-.01-17.45.2"/>
        <path class="cls-7" d="m221.57,154.66c-5.82.76-11.83-.37-17.75-1.51-4.58-.89-9.02-2.7-13.4-4.43-5.44-2.15-10.48-5.09-15.26-8.49-8.62-6.13-15.89-13.51-21.64-22.43-2.4-3.72-4.95-7.4-6.2-11.61-2.74-9.2-1.53-17.92,4.19-25.86,4.04-5.6,9.52-9.08,16.01-11.06,4.5-1.37,9.16-1.06,13.61-.09,6.7,1.45,12.72,4.54,16.64,10.42,2.84,4.25,5.14,8.87,7.69,13.31,2.6,4.52,5.19,9.05,7.81,13.56,3.36,5.77,6.81,11.49,10.13,17.28,4.28,7.47,8.47,14.99,12.71,22.48.95,1.68,1.91,3.36,3,4.94.95,1.38.44,1.81-.95,2.13-5.37,1.23-10.8,1.78-16.61,1.37Z"/>
        <path class="cls-6" d="m135.19,26.23c4.05-.57,8.1-.42,11.64.63,10.18,3.01,17.81,9.15,20.76,19.94,1.26,4.62,1.58,9.33,1.43,14.08-.04,1.07-.55,1.45-1.68,1.68-6.48,1.3-12.09,4.44-16.88,8.88-3.3,3.05-5.82,6.78-7.85,10.84-3.15,6.31-3.38,13.05-2.96,19.83.28,4.54,2,8.78,4.24,12.72,2.47,4.35,5.1,8.63,8.25,12.52,4.51,5.56,9.47,10.68,15.15,15.12,4.08,3.19,8.27,6.18,12.84,8.58,3.86,2.03,7.71,4.18,12,5.23,1.05.26,1.08.86,1.08,1.61.02,2.49-.03,4.99.03,7.48.03,1.21-.49,1.57-1.64,1.56-8.98-.09-17.99.36-26.91-.37-5.47-.45-10.86-2.28-15.83-5.23-5.11-3.03-9.87-6.47-13.69-10.9-5.4-6.25-9.36-13.36-11.15-21.63-1.21-5.57-1.35-11.1-1.14-16.74.22-6.06.05-12.13.05-18.2,0-4.3-.07-4.47,3.54-5.85,8.07-3.08,14.06-8.55,18.2-15.95,3.41-6.1,4.92-12.87,4.32-19.84-.73-8.62-4.02-16.23-10.35-22.35-.59-.57-1.23-1.17-1.55-1.89-.39-.86-1.43-.78-1.91-1.77Z"/>
        <path class="cls-4" d="m89.54,25.81c8.06,0,16.12.09,24.18-.05,2.27-.04,2.79.69,2.75,2.84-.13,6.97-.09,13.95-.02,20.93.01,1.5-.39,1.99-1.95,1.99-16.7-.05-33.4-.06-50.1,0-1.44,0-2.1-.6-2.59-1.72-3.09-7.13-8.26-12.64-13.99-17.68-.5-.44-1.15-.66-1.06-1.43.09-.79.74-.87,1.39-1.13,6.4-2.62,13.04-3.84,19.96-3.76,7.14.09,14.29.02,21.44.03Z"/>
        <path class="cls-5" d="m221.37,179.73c-.44,2.7-1.33,5.25-2.35,7.78-2.83,7.01-7.55,12.2-14.57,15.14-4.66,1.95-4.69,1.88-4.69-3.06,0-12.8,0-25.59,0-38.39,0-1.58-.36-2.94,2.3-2.03,5.52,1.9,11.32,2.32,17.15,2.11,1.77-.06,2.5.65,2.43,2.5-.15,3.81-.12,7.63-.16,11.45-.9,1.48-.79,2.98-.1,4.49Z"/>
        <path class="cls-5" d="m142.13,59.04c-.76,4.98-2.59,9.45-5.72,13.49-3.04,3.92-6.74,6.79-11.12,9-2.09,1.05-2.4.44-2.39-1.61.06-15.86.03-31.71.03-47.57v-4.24c10.66,2.38,18.19,13.38,19.2,22.9,0,2.68,0,5.36,0,8.04Zm-12.2-19.99c-2.11,0-3.92,1.73-3.81,3.62.08,1.39,2.25,3.91,3.35,3.88,2.5-.05,5.04-2.18,5.06-4.23.02-1.92-1.9-3.28-4.61-3.27Z"/>
        <path class="cls-4" d="m34.28,58.34c1.03-.54,1.94-.34,2.81-.34,25.5.02,51,.08,76.5.04,2.09,0,2.69.58,2.6,2.63-.08,1.88-.1,3.03-2.61,3.02-23.43-.1-46.86-.19-70.29.06-4.56.05-6.91-1.97-9.02-5.41Z"/>
        <path class="cls-4" d="m55.35,51.47c-10.33,0-20.22,0-30.12-.01-.44,0-1.04.29-1.3-.33-.18-.42.12-.74.38-1.09,2.26-3.04,4.22-6.33,7.02-8.91,2.08-1.93,3.86-4.24,6.36-5.66,1.89-1.07,3.42-.21,5.04,1.03,4.68,3.62,8.38,8.07,11.65,12.93.35.52.55,1.14.97,2.04Z"/>
        <path class="cls-3" d="m129.94,39.05c2.7-.01,4.62,1.35,4.61,3.27-.02,2.05-2.56,4.18-5.06,4.23-1.1.02-3.27-2.49-3.35-3.88-.11-1.89,1.7-3.61,3.81-3.62Z"/>
      </g>
    </g>
  </g>
</svg>